<svg width="134" height="30" viewBox="0 0 134 30" fill="none" xmlns="http://www.w3.org/2000/svg">
<g id="DEV INVEST -LOGO">
<g id="Vector 13" filter="url(#filter0_d_19_5)">
<path d="M33.25 9H22.25V14.5M32.75 20.5H24.25C23.028 20.2517 22.6548 19.7358 22.25 18.5V14.5M22.25 14.5H31.75M37 8L43 20.5L46 14.25L49 8M57.5 2V20.5M64.5 20.5V9.5C68.21 8.02504 70.29 7.58362 74 9.5V20.5M78.5 10L84 20.5L89 10M103.5 18C103.203 19.4022 102.596 20.0594 99 20.5C95.9362 20.0601 94.5795 19.0637 93.5 14.5M93.5 14.5C93.9721 9.96136 94.9552 8.66616 98 8.5C102.32 8.34555 103.51 9.67547 103.5 14.5H93.5ZM116.5 10C112 6 105 10.5 113 13.5C121 16.5 115 21.5 109 18.5M123.5 4V8M128 19.5C125.476 20.1648 124.458 19.8895 123.5 18V8M123.5 8H121H128H123.5ZM5.75 9.5V20.5C5.75 20.5 6.75 20.5 12.75 20.5C18.75 20.5 18.75 9.5 12.75 9.5C6.75 9.50001 5.75 9.5 5.75 9.5Z" stroke="black" stroke-width="3" stroke-linecap="round" stroke-linejoin="round" shape-rendering="crispEdges"/>
</g>
</g>
<defs>
<filter id="filter0_d_19_5" x="0.25" y="0.5" width="133.25" height="29.5" filterUnits="userSpaceOnUse" color-interpolation-filters="sRGB">
<feFlood flood-opacity="0" result="BackgroundImageFix"/>
<feColorMatrix in="SourceAlpha" type="matrix" values="0 0 0 0 0 0 0 0 0 0 0 0 0 0 0 0 0 0 127 0" result="hardAlpha"/>
<feOffset dy="4"/>
<feGaussianBlur stdDeviation="2"/>
<feComposite in2="hardAlpha" operator="out"/>
<feColorMatrix type="matrix" values="0 0 0 0 0 0 0 0 0 0 0 0 0 0 0 0 0 0 0.25 0"/>
<feBlend mode="normal" in2="BackgroundImageFix" result="effect1_dropShadow_19_5"/>
<feBlend mode="normal" in="SourceGraphic" in2="effect1_dropShadow_19_5" result="shape"/>
</filter>
</defs>
</svg>
