<svg width="16" height="16" viewBox="0 0 16 16" fill="none" xmlns="http://www.w3.org/2000/svg">
<path d="M8.49 4.92C8.91667 4.92 9.29333 5.00333 9.62 5.17C9.95333 5.33667 10.21 5.57667 10.39 5.89C10.5767 6.19667 10.67 6.55333 10.67 6.96C10.67 7.68 10.4467 8.21 10 8.55C9.56 8.88333 8.95667 9.05 8.19 9.05L8.16 10.15H7.56L7.52 8.55H7.78C8.46667 8.55 9.00667 8.44333 9.4 8.23C9.8 8.01 10 7.58667 10 6.96C10 6.52 9.86 6.17 9.58 5.91C9.30667 5.65 8.94333 5.52 8.49 5.52C8.03667 5.52 7.67667 5.64333 7.41 5.89C7.14333 6.13667 7.01 6.47333 7.01 6.9H6.34C6.34 6.5 6.43 6.15333 6.61 5.86C6.79667 5.56 7.05 5.33 7.37 5.17C7.69667 5.00333 8.07 4.92 8.49 4.92ZM7.86 12.05C7.71333 12.05 7.59 12 7.49 11.9C7.39667 11.8 7.35 11.6767 7.35 11.53C7.35 11.3833 7.39667 11.2633 7.49 11.17C7.59 11.07 7.71333 11.02 7.86 11.02C8 11.02 8.11667 11.07 8.21 11.17C8.31 11.2633 8.36 11.3833 8.36 11.53C8.36 11.6767 8.31 11.8 8.21 11.9C8.11667 12 8 12.05 7.86 12.05Z" fill="black"/>
<circle cx="8" cy="8" r="7.75" stroke="black" stroke-width="0.5"/>
</svg>
